<svg width="128" height="49" viewBox="0 0 128 49" fill="none" xmlns="http://www.w3.org/2000/svg">
<path d="M-52 56.3927L21.8927 -17.5" stroke="black"/>
<path d="M-45 56.3927L28.8927 -17.5" stroke="black"/>
<path d="M-37 56.3927L36.8927 -17.5" stroke="black"/>
<path d="M-29 56.3927L44.8927 -17.5" stroke="black"/>
<path d="M-21 56.3927L52.8927 -17.5" stroke="black"/>
<path d="M-13 56.3927L60.8927 -17.5" stroke="black"/>
<path d="M-4.99996 56.3927L68.8927 -17.5" stroke="black"/>
<path d="M3.00004 56.3927L76.8927 -17.5" stroke="black"/>
<path d="M11 56.3927L84.8927 -17.5" stroke="black"/>
<path d="M19 56.3927L92.8927 -17.5" stroke="black"/>
<path d="M27 56.3927L100.893 -17.5" stroke="black"/>
<path d="M35 56.3927L108.893 -17.5" stroke="black"/>
<path d="M43 56.3927L116.893 -17.5" stroke="black"/>
<path d="M51 56.3927L124.893 -17.5" stroke="black"/>
<path d="M59 56.3927L132.893 -17.5" stroke="black"/>
<path d="M67 56.3927L140.893 -17.5" stroke="black"/>
<path d="M75 56.3927L148.893 -17.5" stroke="black"/>
<path d="M83 56.3927L156.893 -17.5" stroke="black"/>
<path d="M91 56.3927L164.893 -17.5" stroke="black"/>
<path d="M99 56.3927L172.893 -17.5" stroke="black"/>
<path d="M107 56.3927L180.893 -17.5" stroke="black"/>
<path d="M115 56.3927L188.893 -17.5" stroke="black"/>
</svg>
